<svg width="29" height="32" viewBox="0 0 29 32" fill="none" xmlns="http://www.w3.org/2000/svg">
<path d="M27.8285 30.9016C27.1369 31.5932 26.199 31.9817 25.2209 31.9817C24.2429 31.9817 23.305 31.5932 22.6134 30.9016L14.4665 21.59L6.31963 30.8986C5.97821 31.2456 5.57147 31.5216 5.12286 31.7106C4.67426 31.8996 4.19266 31.998 3.70585 32C3.21904 32.002 2.73666 31.9075 2.28653 31.7222C1.8364 31.5368 1.42742 31.2641 1.08319 30.9199C0.738966 30.5757 0.4663 30.1667 0.280921 29.7165C0.095543 29.2664 0.00112126 28.784 0.00310349 28.2972C0.00508572 27.8104 0.103432 27.3288 0.29247 26.8802C0.481508 26.4316 0.757497 26.0249 1.10452 25.6834L9.58022 16.0031L1.10144 6.31655C0.754424 5.97514 0.478435 5.5684 0.289397 5.11979C0.100359 4.67118 0.00201281 4.18959 3.05745e-05 3.70278C-0.00195166 3.21597 0.0924701 2.73359 0.277849 2.28346C0.463227 1.83332 0.735893 1.42435 1.08012 1.08012C1.42435 0.735893 1.83332 0.463227 2.28346 0.277848C2.73359 0.0924701 3.21597 -0.00195166 3.70278 3.05745e-05C4.18959 0.00201281 4.67118 0.100359 5.11979 0.289397C5.5684 0.478435 5.97514 0.754424 6.31655 1.10144L14.4665 10.4161L22.6134 1.10144C22.9548 0.754424 23.3615 0.478435 23.8102 0.289397C24.2588 0.100359 24.7404 0.00201281 25.2272 3.05745e-05C25.714 -0.00195166 26.1964 0.0924701 26.6465 0.277848C27.0966 0.463227 27.5056 0.735893 27.8498 1.08012C28.194 1.42435 28.4667 1.83332 28.6521 2.28346C28.8375 2.73359 28.9319 3.21597 28.9299 3.70278C28.9279 4.18959 28.8296 4.67118 28.6405 5.11979C28.4515 5.5684 28.1755 5.97514 27.8285 6.31655L19.3528 16.0031L27.8285 25.6834C28.1714 26.0259 28.4434 26.4327 28.629 26.8803C28.8145 27.328 28.9101 27.8079 28.9101 28.2925C28.9101 28.7772 28.8145 29.257 28.629 29.7047C28.4434 30.1524 28.1714 30.5591 27.8285 30.9016V30.9016Z" fill="white"/>
</svg>
