<svg width="146" height="64" viewBox="0 0 146 64" fill="none" xmlns="http://www.w3.org/2000/svg">
<path d="M19.6478 26.9827C22.6705 31.8108 25.6739 36.1716 28.6579 40.0652L28.5416 40.9413C26.0227 41.8368 23.4456 42.3625 20.8104 42.5182L19.9966 41.8758C17.2064 37.0477 14.9393 32.8426 13.1954 29.2605H7.55684V30.0197L7.90562 41.9342H0L0.406907 30.7206L0 4.32191L14.358 4.2635C18.2721 4.2635 21.2948 5.23691 23.4262 7.18371C25.5576 9.09158 26.6233 11.8366 26.6233 15.4187C26.6233 17.8327 26.0033 20.0521 24.7632 22.0768C23.5619 24.0625 21.8567 25.6978 19.6478 26.9827ZM7.6731 23.128L13.4279 23.3617C16.7219 22.2325 18.3689 19.8379 18.3689 16.178C18.3689 14.1922 17.8264 12.7126 16.7413 11.7392C15.695 10.7269 14.0674 10.1818 11.8584 10.1039L7.90562 10.3375L7.6731 23.128Z" fill="#E2211C"/>
<path d="M49.8161 24.997C49.8549 23.5953 49.5642 22.5245 48.9442 21.7847C48.3241 21.045 47.4134 20.6751 46.2121 20.6751C44.4682 20.6751 42.6081 21.5122 40.6317 23.1864L40.5154 29.9613L40.9223 41.9342H33.1911L33.598 30.6622L33.2492 1.51851L40.9804 0.934468L40.6898 18.6309H41.0386C43.17 16.6841 45.5145 15.2824 48.0722 14.4258C51.0175 14.4258 53.2458 15.1072 54.7571 16.47C56.3073 17.7938 57.063 19.7211 57.0242 22.252L56.8498 30.0197L57.1405 41.9342H49.4092L49.8161 24.997Z" fill="#E2211C"/>
<path d="M75.1724 14.2506C79.1252 14.2506 82.148 15.4187 84.2406 17.7549C86.3333 20.091 87.3796 23.459 87.3796 27.8588C87.3796 32.609 86.2558 36.2495 84.0081 38.7804C81.7605 41.2723 78.5246 42.5182 74.3005 42.5182C70.3477 42.5182 67.3249 41.3501 65.2323 39.014C63.1396 36.6778 62.0933 33.3098 62.0933 28.9101C62.0933 24.1599 63.2171 20.5388 65.4648 18.0469C67.7125 15.516 70.9484 14.2506 75.1724 14.2506ZM74.6493 19.507C72.7891 19.507 71.4328 20.13 70.5802 21.3759C69.7664 22.6219 69.3595 24.6271 69.3595 27.3915C69.3595 30.9737 69.7858 33.524 70.6383 35.0425C71.4909 36.561 72.886 37.3203 74.8236 37.3203C76.6838 37.3203 78.0208 36.7167 78.8346 35.5097C79.6872 34.2638 80.1134 32.2391 80.1134 29.4357C80.1134 25.8925 79.6678 23.3617 78.7765 21.8432C77.9239 20.2857 76.5482 19.507 74.6493 19.507ZM65.8136 8.23499C68.0225 6.21031 70.7546 3.46531 74.0098 0H75.6956C78.7183 3.34851 81.4311 6.0935 83.8337 8.23499L81.9155 11.2136H81.1598C78.6021 9.18892 76.49 7.39786 74.8236 5.84042C73.3123 7.28105 71.2196 9.07211 68.5457 11.2136H67.79L65.8136 8.23499Z" fill="#E2211C"/>
<path d="M108.962 24.997C109.001 23.6342 108.691 22.5829 108.032 21.8432C107.412 21.0644 106.501 20.6751 105.3 20.6751C103.556 20.6751 101.696 21.5122 99.7195 23.1864V29.9613L100.068 41.9342H92.337L92.7439 30.7206L92.4533 15.3019L99.7776 14.6594V18.6309H100.184C102.316 16.6841 104.641 15.2824 107.16 14.4258C110.105 14.4258 112.353 15.1072 113.903 16.47C115.453 17.7938 116.19 19.7211 116.112 22.252L115.938 30.0197L116.286 41.9342H108.497L108.962 24.997Z" fill="#E2211C"/>
<path d="M144.031 29.3189L128.336 29.4357C128.685 34.3027 131.146 36.7362 135.719 36.7362C138.122 36.7362 140.796 36.0548 143.741 34.6921L144.38 35.1009L143.218 40.8829C140.272 41.9731 137.502 42.5182 134.905 42.5182C130.642 42.5182 127.29 41.2723 124.849 38.7804C122.446 36.2884 121.245 32.8426 121.245 28.4428C121.245 24.082 122.427 20.6361 124.791 18.1053C127.154 15.5355 130.352 14.2506 134.382 14.2506C137.831 14.2506 140.486 15.2045 142.346 17.1124C144.245 18.9814 145.194 21.6095 145.194 24.997C145.194 25.8925 145.097 27.0217 144.903 28.3844L144.031 29.3189ZM138.451 24.1209C138.451 22.5635 138.102 21.3954 137.405 20.6167C136.707 19.799 135.68 19.3902 134.324 19.3902C132.812 19.3902 131.553 19.8963 130.545 20.9087C129.538 21.8821 128.86 23.3033 128.511 25.1722L138.335 24.9386L138.451 24.1209Z" fill="#E2211C"/>
<path d="M17.2451 62.1767L17.098 63.8357H11.4086L11.523 60.6819L11.4086 53.2573H13.6647L13.5339 60.4848L13.583 61.996H17.1143L17.2451 62.1767Z" fill="#E2211C"/>
<path d="M25.1681 61.996L25.2989 62.1767L25.1518 63.8357H18.5468L18.6612 60.6819L18.5468 53.2573H25.2172L25.348 53.438L25.1845 55.097L22.6667 55.0149L20.7703 55.0313L20.7212 57.5774L22.5359 57.6102L24.2526 57.5609L24.3834 57.7252L24.2362 59.3842L22.3724 59.335L20.6885 59.3514L20.6722 60.4848L20.7212 62.0781L22.5686 62.0946L25.1681 61.996Z" fill="#E2211C"/>
<path d="M33.574 53.1916C35.0999 53.1916 36.2716 53.6187 37.089 54.4728C37.9065 55.327 38.3152 56.5535 38.3152 58.1523C38.3152 60.0249 37.8574 61.4594 36.9419 62.4559C36.0264 63.4525 34.7185 63.9507 33.0182 63.9507C32.5059 63.9507 31.8901 63.9398 31.1707 63.9179C30.4623 63.896 29.8519 63.8686 29.3396 63.8357L29.4541 60.6819L29.3396 53.2573L33.574 53.1916ZM33.4105 62.226C35.1435 62.226 36.01 61.0378 36.01 58.6615C36.01 57.3693 35.7975 56.433 35.3724 55.8526C34.9582 55.2613 34.3043 54.9656 33.4105 54.9656C32.8329 54.9656 32.2171 54.993 31.5631 55.0477L31.465 60.4848L31.5141 62.111C32.277 62.1876 32.9092 62.226 33.4105 62.226Z" fill="#E2211C"/>
<path d="M46.5942 61.996L46.725 62.1767L46.5778 63.8357H39.9728L40.0873 60.6819L39.9728 53.2573H46.6432L46.774 53.438L46.6105 55.097L44.0928 55.0149L42.1963 55.0313L42.1473 57.5774L43.962 57.6102L45.6786 57.5609L45.8094 57.7252L45.6623 59.3842L43.7985 59.335L42.1146 59.3514L42.0982 60.4848L42.1473 62.0781L43.9947 62.0946L46.5942 61.996ZM45.1391 49.2821L45.695 50.5798L45.6296 50.7769C44.5723 51.1931 43.3952 51.6201 42.0982 52.0582L41.902 51.9925L41.5423 51.089C42.883 50.4101 44.011 49.7914 44.9266 49.2329L45.1391 49.2821Z" fill="#E2211C"/>
<path d="M52.3292 53.2409C53.43 53.2409 54.2747 53.5201 54.8633 54.0786C55.4627 54.6371 55.7625 55.4365 55.7625 56.4768C55.7625 57.2762 55.5881 57.9771 55.2393 58.5794C54.8905 59.1707 54.3892 59.6306 53.7352 59.9592C53.0921 60.2877 52.3346 60.4519 51.4627 60.4519H50.4164V60.4848L50.5145 63.8357H48.291L48.4055 60.6819L48.291 53.2573L52.3292 53.2409ZM51.9532 58.8258C52.9559 58.541 53.4573 57.8238 53.4573 56.6739C53.4573 56.0826 53.3047 55.6446 52.9995 55.3598C52.7052 55.0642 52.2475 54.9054 51.6262 54.8835L50.5145 54.9492L50.4491 58.76L51.9532 58.8258Z" fill="#E2211C"/>
<path d="M64.7221 63.8357H62.4659L62.2043 62.4559L61.9264 61.4704L59.8664 61.4211L58.0517 61.4704L57.7738 62.341L57.4958 63.8357H55.3051L58.8692 53.2573H61.5013L64.7221 63.8357ZM61.4523 59.7456L60.2098 55.3434H60.0626L58.6239 59.7456L60.0299 59.7785L61.4523 59.7456Z" fill="#E2211C"/>
<path d="M71.7784 59.6306C72.6286 60.9885 73.4733 62.215 74.3125 63.3101L74.2798 63.5565C73.5714 63.8084 72.8466 63.9562 72.1054 64L71.8765 63.8193C71.0918 62.4614 70.4542 61.2787 69.9637 60.2713H68.3779V60.4848L68.476 63.8357H66.2525L66.3669 60.6819L66.2525 53.2573L70.2907 53.2409C71.3915 53.2409 72.2417 53.5146 72.8411 54.0622C73.4406 54.5988 73.7403 55.3708 73.7403 56.3783C73.7403 57.0572 73.5659 57.6814 73.2171 58.2508C72.8793 58.8093 72.3997 59.2693 71.7784 59.6306ZM68.4106 58.5465L70.0291 58.6122C70.9555 58.2946 71.4188 57.6212 71.4188 56.5918C71.4188 56.0333 71.2662 55.6172 70.961 55.3434C70.6667 55.0587 70.2089 54.9054 69.5877 54.8835L68.476 54.9492L68.4106 58.5465Z" fill="#E2211C"/>
<path d="M82.2001 53.438L82.0693 55.097L80.0911 54.9985H79.4371L79.3554 60.4848L79.4535 63.8357H77.23L77.3445 60.6819L77.2627 54.9985H76.6088L74.5979 55.097L74.4507 54.9163L74.5979 53.2573H82.0693L82.2001 53.438Z" fill="#E2211C"/>
<path d="M90.2605 61.996L90.3913 62.1767L90.2442 63.8357H83.6392L83.7537 60.6819L83.6392 53.2573H90.3096L90.4404 53.438L90.2769 55.097L87.7591 55.0149L85.8627 55.0313L85.8136 57.5774L87.6283 57.6102L89.345 57.5609L89.4758 57.7252L89.3286 59.3842L87.4649 59.335L85.7809 59.3514L85.7646 60.4848L85.8136 62.0781L87.661 62.0946L90.2605 61.996Z" fill="#E2211C"/>
<path d="M102.928 63.8357H100.966L100.802 60.6326L100.426 56.5589H100.263L97.9084 62.7188H96.1917L94.05 56.5589H93.9029L93.4942 60.4191L93.2653 63.8357H91.4015L92.4642 53.2573H95.0146L95.4397 54.8178L97.1073 59.8278H97.2544L99.0038 54.8178L99.4779 53.2573H101.979L102.928 63.8357Z" fill="#E2211C"/>
<path d="M111.607 61.996L111.738 62.1767L111.59 63.8357H104.985L105.1 60.6819L104.985 53.2573H111.656L111.787 53.438L111.623 55.097L109.105 55.0149L107.209 55.0313L107.16 57.5774L108.975 57.6102L110.691 57.5609L110.822 57.7252L110.675 59.3842L108.811 59.335L107.127 59.3514L107.111 60.4848L107.16 62.0781L109.007 62.0946L111.607 61.996Z" fill="#E2211C"/>
<path d="M122.001 60.5669L122.083 63.8357H119.696L115.396 56.6739H115.265L115.249 60.1891L115.315 63.8357H113.304L113.418 60.7148L113.32 53.2573H115.691L119.99 60.4191H120.137L120.088 53.3558L122.132 53.2244L122.001 60.5669Z" fill="#E2211C"/>
<path d="M131.279 53.438L131.148 55.097L129.17 54.9985H128.516L128.434 60.4848L128.532 63.8357H126.309L126.423 60.6819L126.341 54.9985H125.688L123.677 55.097L123.529 54.9163L123.677 53.2573H131.148L131.279 53.438Z" fill="#E2211C"/>
</svg>
