<svg width="300" height="132" viewBox="0 0 300 132" fill="none" xmlns="http://www.w3.org/2000/svg">
<path d="M40.5963 55.5963C46.8419 65.5442 53.0474 74.5295 59.2129 82.552L58.9727 84.3571C53.7681 86.2023 48.4433 87.2853 42.9984 87.6062L41.3169 86.2825C35.5518 76.3345 30.8676 67.6702 27.2644 60.2895H15.614V61.8539L16.3346 86.4028H0L0.840751 63.2979L0 8.90503L29.6665 8.78469C37.7537 8.78469 43.9993 10.7903 48.4033 14.8016C52.8072 18.7327 55.0092 24.3885 55.0092 31.7693C55.0092 36.7433 53.728 41.3161 51.1657 45.4879C48.6835 49.5794 45.1604 52.9488 40.5963 55.5963ZM15.8542 47.6539L27.7448 48.1353C34.5509 45.8088 37.9539 40.8749 37.9539 33.3337C37.9539 29.2422 36.8329 26.1936 34.5909 24.188C32.429 22.1021 29.066 20.979 24.5019 20.8185L16.3346 21.2999L15.8542 47.6539Z" fill="white"/>
<path d="M102.93 51.5048C103.01 48.6166 102.41 46.4104 101.129 44.8862C99.8474 43.3619 97.9657 42.5997 95.4835 42.5997C91.8803 42.5997 88.0368 44.3246 83.9532 47.7743L83.713 61.7335L84.5537 86.4028H68.5794L69.4202 63.1776L68.6995 3.1288L84.6738 1.92542L84.0733 38.3879H84.7939C89.1979 34.3766 94.0422 31.4885 99.3269 29.7235C105.412 29.7235 110.016 31.1275 113.139 33.9354C116.342 36.663 117.904 40.6342 117.823 45.8489L117.463 61.8539L118.064 86.4028H102.089L102.93 51.5048Z" fill="white"/>
<path d="M155.321 29.3625C163.489 29.3625 169.734 31.7693 174.058 36.5828C178.382 41.3964 180.544 48.3359 180.544 57.4013C180.544 67.1888 178.222 74.6899 173.578 79.9046C168.934 85.039 162.248 87.6062 153.52 87.6062C145.352 87.6062 139.107 85.1995 134.783 80.3859C130.459 75.5724 128.297 68.6329 128.297 59.5674C128.297 49.7799 130.619 42.3189 135.263 37.1845C139.908 31.9699 146.594 29.3625 155.321 29.3625ZM154.24 40.193C150.397 40.193 147.594 41.4766 145.833 44.0438C144.151 46.611 143.311 50.7426 143.311 56.4386C143.311 63.8194 144.191 69.0741 145.953 72.2029C147.715 75.3317 150.597 76.8961 154.601 76.8961C158.444 76.8961 161.207 75.6526 162.888 73.1656C164.65 70.5984 165.53 66.4267 165.53 60.6505C165.53 53.35 164.61 48.1353 162.768 45.0065C161.006 41.7975 158.164 40.193 154.24 40.193ZM135.984 16.9677C140.548 12.796 146.193 7.14007 152.919 0H156.402C162.648 6.89939 168.253 12.5553 173.217 16.9677L169.254 23.1049H167.692C162.408 18.9332 158.044 15.2428 154.601 12.0338C151.478 15.0022 147.154 18.6925 141.629 23.1049H140.068L135.984 16.9677Z" fill="white"/>
<path d="M225.137 51.5048C225.218 48.6969 224.577 46.5308 223.216 45.0065C221.935 43.402 220.053 42.5997 217.571 42.5997C213.967 42.5997 210.124 44.3246 206.04 47.7743V61.7335L206.761 86.4028H190.787L191.628 63.2979L191.027 31.5286L206.161 30.2049V38.3879H207.001C211.405 34.3766 216.21 31.4885 221.414 29.7235C227.5 29.7235 232.144 31.1275 235.347 33.9354C238.549 36.663 240.071 40.6342 239.911 45.8489L239.55 61.8539L240.271 86.4028H224.177L225.137 51.5048Z" fill="white"/>
<path d="M297.598 60.4098L265.169 60.6505C265.89 70.6787 270.974 75.6927 280.423 75.6927C285.387 75.6927 290.912 74.2888 296.997 71.4809L298.319 72.3233L295.916 84.2368C289.831 86.4831 284.106 87.6062 278.741 87.6062C269.933 87.6062 263.007 85.039 257.962 79.9046C252.998 74.7701 250.516 67.6702 250.516 58.6047C250.516 49.6195 252.958 42.5195 257.842 37.3049C262.727 32.01 269.333 29.3625 277.66 29.3625C284.786 29.3625 290.271 31.3281 294.115 35.2591C298.038 39.1099 300 44.5251 300 51.5048C300 53.3499 299.8 55.6765 299.399 58.4844L297.598 60.4098ZM286.068 49.6997C286.068 46.4907 285.347 44.0839 283.906 42.4794C282.464 40.7947 280.342 39.9523 277.54 39.9523C274.417 39.9523 271.815 40.9952 269.733 43.0811C267.651 45.0867 266.25 48.015 265.529 51.8658L285.827 51.3844L286.068 49.6997Z" fill="white"/>
<path d="M35.6319 128.111L35.3279 131.53H23.5724L23.8088 125.031L23.5724 109.733H28.2341L27.9638 124.625L28.0652 127.739H35.3617L35.6319 128.111Z" fill="white"/>
<path d="M52.0024 127.739L52.2726 128.111L51.9686 131.53H38.3214L38.5579 125.031L38.3214 109.733H52.1037L52.374 110.106L52.0362 113.524L46.834 113.355L42.9155 113.389L42.8142 118.635L46.5638 118.702L50.1107 118.601L50.3809 118.939L50.0769 122.358L46.226 122.256L42.7466 122.29L42.7128 124.625L42.8142 127.908L46.6313 127.942L52.0024 127.739Z" fill="white"/>
<path d="M69.3707 109.598C72.5235 109.598 74.9444 110.478 76.6334 112.238C78.3224 113.998 79.1669 116.525 79.1669 119.819C79.1669 123.678 78.2211 126.633 76.3294 128.687C74.4377 130.74 71.7353 131.767 68.2222 131.767C67.1637 131.767 65.8913 131.744 64.405 131.699C62.9412 131.654 61.68 131.597 60.6216 131.53L60.8581 125.031L60.6216 109.733L69.3707 109.598ZM69.0329 128.213C72.6136 128.213 74.4039 125.765 74.4039 120.868C74.4039 118.206 73.9648 116.277 73.0865 115.081C72.2307 113.863 70.8795 113.253 69.0329 113.253C67.8393 113.253 66.5669 113.31 65.2157 113.423L65.013 124.625L65.1144 127.976C66.6908 128.134 67.9969 128.213 69.0329 128.213Z" fill="white"/>
<path d="M96.2729 127.739L96.5431 128.111L96.2391 131.53H82.5919L82.8284 125.031L82.5919 109.733H96.3742L96.6445 110.106L96.3067 113.524L91.1045 113.355L87.186 113.389L87.0847 118.635L90.8343 118.702L94.3812 118.601L94.6515 118.939L94.3474 122.358L90.4965 122.256L87.0171 122.29L86.9834 124.625L87.0847 127.908L90.9019 127.942L96.2729 127.739ZM93.2665 101.543L94.415 104.217L94.2799 104.623C92.0954 105.48 89.6632 106.36 86.9834 107.263L86.578 107.127L85.8348 105.266C88.6048 103.867 90.9356 102.592 92.8273 101.441L93.2665 101.543Z" fill="white"/>
<path d="M108.123 109.7C110.397 109.7 112.142 110.275 113.359 111.426C114.597 112.576 115.216 114.224 115.216 116.367C115.216 118.014 114.856 119.458 114.136 120.699C113.415 121.918 112.379 122.865 111.028 123.542C109.699 124.219 108.134 124.558 106.332 124.558H104.17V124.625L104.373 131.53H99.7789L100.015 125.031L99.7789 109.733L108.123 109.7ZM107.346 121.207C109.418 120.62 110.453 119.142 110.453 116.773C110.453 115.555 110.138 114.652 109.508 114.066C108.9 113.456 107.954 113.129 106.67 113.084L104.373 113.219L104.238 121.072L107.346 121.207Z" fill="white"/>
<path d="M133.729 131.53H129.067L128.527 128.687L127.952 126.656L123.696 126.554L119.946 126.656L119.372 128.45L118.798 131.53H114.271L121.635 109.733H127.074L133.729 131.53ZM126.973 123.102L124.405 114.032H124.101L121.129 123.102L124.034 123.17L126.973 123.102Z" fill="white"/>
<path d="M148.309 122.865C150.065 125.663 151.811 128.19 153.545 130.447L153.477 130.954C152.013 131.473 150.516 131.778 148.984 131.868L148.511 131.496C146.89 128.698 145.572 126.261 144.559 124.185H141.282V124.625L141.485 131.53H136.891L137.127 125.031L136.891 109.733L145.235 109.7C147.509 109.7 149.266 110.264 150.504 111.392C151.743 112.497 152.362 114.088 152.362 116.164C152.362 117.563 152.002 118.849 151.281 120.022C150.583 121.173 149.592 122.121 148.309 122.865ZM141.35 120.632L144.694 120.767C146.608 120.113 147.565 118.725 147.565 116.604C147.565 115.453 147.25 114.596 146.62 114.032C146.012 113.445 145.066 113.129 143.782 113.084L141.485 113.219L141.35 120.632Z" fill="white"/>
<path d="M169.842 110.106L169.572 113.524L165.484 113.321H164.133L163.964 124.625L164.167 131.53H159.573L159.809 125.031L159.64 113.321H158.289L154.134 113.524L153.83 113.152L154.134 109.733H169.572L169.842 110.106Z" fill="white"/>
<path d="M186.496 127.739L186.767 128.111L186.463 131.53H172.815L173.052 125.031L172.815 109.733H186.598L186.868 110.106L186.53 113.524L181.328 113.355L177.41 113.389L177.308 118.635L181.058 118.702L184.605 118.601L184.875 118.939L184.571 122.358L180.72 122.256L177.241 122.29L177.207 124.625L177.308 127.908L181.125 127.942L186.496 127.739Z" fill="white"/>
<path d="M212.669 131.53H208.615L208.277 124.93L207.501 116.536H207.163L202.298 129.228H198.751L194.326 116.536H194.022L193.178 124.49L192.705 131.53H188.854L191.05 109.733H196.319L197.198 112.949L200.643 123.271H200.947L204.562 112.949L205.541 109.733H210.71L212.669 131.53Z" fill="white"/>
<path d="M230.602 127.739L230.872 128.111L230.568 131.53H216.921L217.157 125.031L216.921 109.733H230.703L230.974 110.106L230.636 113.524L225.434 113.355L221.515 113.389L221.414 118.635L225.163 118.702L228.71 118.601L228.98 118.939L228.676 122.358L224.826 122.256L221.346 122.29L221.312 124.625L221.414 127.908L225.231 127.942L230.602 127.739Z" fill="white"/>
<path d="M252.079 124.795L252.248 131.53H247.316L238.432 116.773H238.162L238.128 124.016L238.263 131.53H234.108L234.344 125.099L234.142 109.733H239.04L247.924 124.49H248.228L248.127 109.936L252.349 109.666L252.079 124.795Z" fill="white"/>
<path d="M271.249 110.106L270.978 113.524L266.891 113.321H265.54L265.371 124.625L265.573 131.53H260.979L261.216 125.031L261.047 113.321H259.696L255.541 113.524L255.237 113.152L255.541 109.733H270.978L271.249 110.106Z" fill="white"/>
<path d="M40.5963 55.5963C46.8419 65.5442 53.0474 74.5295 59.2129 82.552L58.9727 84.3571C53.7681 86.2023 48.4433 87.2853 42.9984 87.6062L41.3169 86.2825C35.5518 76.3345 30.8676 67.6702 27.2644 60.2895H15.614V61.8539L16.3346 86.4028H0L0.840751 63.2979L0 8.90503L29.6665 8.78469C37.7537 8.78469 43.9993 10.7903 48.4033 14.8016C52.8072 18.7327 55.0092 24.3885 55.0092 31.7693C55.0092 36.7433 53.728 41.3161 51.1657 45.4879C48.6835 49.5794 45.1604 52.9488 40.5963 55.5963ZM15.8542 47.6539L27.7448 48.1353C34.5509 45.8088 37.9539 40.8749 37.9539 33.3337C37.9539 29.2422 36.8329 26.1936 34.5909 24.188C32.429 22.1021 29.066 20.979 24.5019 20.8185L16.3346 21.2999L15.8542 47.6539Z" stroke="#323232"/>
<path d="M102.93 51.5048C103.01 48.6166 102.41 46.4104 101.129 44.8862C99.8474 43.3619 97.9657 42.5997 95.4835 42.5997C91.8803 42.5997 88.0368 44.3246 83.9532 47.7743L83.713 61.7335L84.5537 86.4028H68.5794L69.4202 63.1776L68.6995 3.1288L84.6738 1.92542L84.0733 38.3879H84.7939C89.1979 34.3766 94.0422 31.4885 99.3269 29.7235C105.412 29.7235 110.016 31.1275 113.139 33.9354C116.342 36.663 117.904 40.6342 117.823 45.8489L117.463 61.8539L118.064 86.4028H102.089L102.93 51.5048Z" stroke="#323232"/>
<path d="M155.321 29.3625C163.489 29.3625 169.734 31.7693 174.058 36.5828C178.382 41.3964 180.544 48.3359 180.544 57.4013C180.544 67.1888 178.222 74.6899 173.578 79.9046C168.934 85.039 162.248 87.6062 153.52 87.6062C145.352 87.6062 139.107 85.1995 134.783 80.3859C130.459 75.5724 128.297 68.6329 128.297 59.5674C128.297 49.7799 130.619 42.3189 135.263 37.1845C139.908 31.9699 146.594 29.3625 155.321 29.3625ZM154.24 40.193C150.397 40.193 147.594 41.4766 145.833 44.0438C144.151 46.611 143.311 50.7426 143.311 56.4386C143.311 63.8194 144.191 69.0741 145.953 72.2029C147.715 75.3317 150.597 76.8961 154.601 76.8961C158.444 76.8961 161.207 75.6526 162.888 73.1656C164.65 70.5984 165.53 66.4267 165.53 60.6505C165.53 53.35 164.61 48.1353 162.768 45.0065C161.006 41.7975 158.164 40.193 154.24 40.193ZM135.984 16.9677C140.548 12.796 146.193 7.14007 152.919 0H156.402C162.648 6.89939 168.253 12.5553 173.217 16.9677L169.254 23.1049H167.692C162.408 18.9332 158.044 15.2428 154.601 12.0338C151.478 15.0022 147.154 18.6925 141.629 23.1049H140.068L135.984 16.9677Z" stroke="#323232"/>
<path d="M225.137 51.5048C225.218 48.6969 224.577 46.5308 223.216 45.0065C221.935 43.402 220.053 42.5997 217.571 42.5997C213.967 42.5997 210.124 44.3246 206.04 47.7743V61.7335L206.761 86.4028H190.787L191.628 63.2979L191.027 31.5286L206.161 30.2049V38.3879H207.001C211.405 34.3766 216.21 31.4885 221.414 29.7235C227.5 29.7235 232.144 31.1275 235.347 33.9354C238.549 36.663 240.071 40.6342 239.911 45.8489L239.55 61.8539L240.271 86.4028H224.177L225.137 51.5048Z" stroke="#323232"/>
<path d="M297.598 60.4098L265.169 60.6505C265.89 70.6787 270.974 75.6927 280.423 75.6927C285.387 75.6927 290.912 74.2888 296.997 71.4809L298.319 72.3233L295.916 84.2368C289.831 86.4831 284.106 87.6062 278.741 87.6062C269.933 87.6062 263.007 85.039 257.962 79.9046C252.998 74.7701 250.516 67.6702 250.516 58.6047C250.516 49.6195 252.958 42.5195 257.842 37.3049C262.727 32.01 269.333 29.3625 277.66 29.3625C284.786 29.3625 290.271 31.3281 294.115 35.2591C298.038 39.1099 300 44.5251 300 51.5048C300 53.3499 299.8 55.6765 299.399 58.4844L297.598 60.4098ZM286.068 49.6997C286.068 46.4907 285.347 44.0839 283.906 42.4794C282.464 40.7947 280.342 39.9523 277.54 39.9523C274.417 39.9523 271.815 40.9952 269.733 43.0811C267.651 45.0867 266.25 48.015 265.529 51.8658L285.827 51.3844L286.068 49.6997Z" stroke="#323232"/>
<path d="M35.6319 128.111L35.3279 131.53H23.5724L23.8088 125.031L23.5724 109.733H28.2341L27.9638 124.625L28.0652 127.739H35.3617L35.6319 128.111Z" stroke="#323232"/>
<path d="M52.0024 127.739L52.2726 128.111L51.9686 131.53H38.3214L38.5579 125.031L38.3214 109.733H52.1037L52.374 110.106L52.0362 113.524L46.834 113.355L42.9155 113.389L42.8142 118.635L46.5638 118.702L50.1107 118.601L50.3809 118.939L50.0769 122.358L46.226 122.256L42.7466 122.29L42.7128 124.625L42.8142 127.908L46.6313 127.942L52.0024 127.739Z" stroke="#323232"/>
<path d="M69.3707 109.598C72.5235 109.598 74.9444 110.478 76.6334 112.238C78.3224 113.998 79.1669 116.525 79.1669 119.819C79.1669 123.678 78.2211 126.633 76.3294 128.687C74.4377 130.74 71.7353 131.767 68.2222 131.767C67.1637 131.767 65.8913 131.744 64.405 131.699C62.9412 131.654 61.68 131.597 60.6216 131.53L60.8581 125.031L60.6216 109.733L69.3707 109.598ZM69.0329 128.213C72.6136 128.213 74.4039 125.765 74.4039 120.868C74.4039 118.206 73.9648 116.277 73.0865 115.081C72.2307 113.863 70.8795 113.253 69.0329 113.253C67.8393 113.253 66.5669 113.31 65.2157 113.423L65.013 124.625L65.1144 127.976C66.6908 128.134 67.9969 128.213 69.0329 128.213Z" stroke="#323232"/>
<path d="M96.2729 127.739L96.5431 128.111L96.2391 131.53H82.5919L82.8284 125.031L82.5919 109.733H96.3742L96.6445 110.106L96.3067 113.524L91.1045 113.355L87.186 113.389L87.0847 118.635L90.8343 118.702L94.3812 118.601L94.6515 118.939L94.3474 122.358L90.4965 122.256L87.0171 122.29L86.9834 124.625L87.0847 127.908L90.9019 127.942L96.2729 127.739ZM93.2665 101.543L94.415 104.217L94.2799 104.623C92.0954 105.48 89.6632 106.36 86.9834 107.263L86.578 107.127L85.8348 105.266C88.6048 103.867 90.9356 102.592 92.8273 101.441L93.2665 101.543Z" stroke="#323232"/>
<path d="M108.123 109.7C110.397 109.7 112.142 110.275 113.359 111.426C114.597 112.576 115.216 114.224 115.216 116.367C115.216 118.014 114.856 119.458 114.136 120.699C113.415 121.918 112.379 122.865 111.028 123.542C109.699 124.219 108.134 124.558 106.332 124.558H104.17V124.625L104.373 131.53H99.7789L100.015 125.031L99.7789 109.733L108.123 109.7ZM107.346 121.207C109.418 120.62 110.453 119.142 110.453 116.773C110.453 115.555 110.138 114.652 109.508 114.066C108.9 113.456 107.954 113.129 106.67 113.084L104.373 113.219L104.238 121.072L107.346 121.207Z" stroke="#323232"/>
<path d="M133.729 131.53H129.067L128.527 128.687L127.952 126.656L123.696 126.554L119.946 126.656L119.372 128.45L118.798 131.53H114.271L121.635 109.733H127.074L133.729 131.53ZM126.973 123.102L124.405 114.032H124.101L121.129 123.102L124.034 123.17L126.973 123.102Z" stroke="#323232"/>
<path d="M148.309 122.865C150.065 125.663 151.811 128.19 153.545 130.447L153.477 130.954C152.013 131.473 150.516 131.778 148.984 131.868L148.511 131.496C146.89 128.698 145.572 126.261 144.559 124.185H141.282V124.625L141.485 131.53H136.891L137.127 125.031L136.891 109.733L145.235 109.7C147.509 109.7 149.266 110.264 150.504 111.392C151.743 112.497 152.362 114.088 152.362 116.164C152.362 117.563 152.002 118.849 151.281 120.022C150.583 121.173 149.592 122.121 148.309 122.865ZM141.35 120.632L144.694 120.767C146.608 120.113 147.565 118.725 147.565 116.604C147.565 115.453 147.25 114.596 146.62 114.032C146.012 113.445 145.066 113.129 143.782 113.084L141.485 113.219L141.35 120.632Z" stroke="#323232"/>
<path d="M169.842 110.106L169.572 113.524L165.484 113.321H164.133L163.964 124.625L164.167 131.53H159.573L159.809 125.031L159.64 113.321H158.289L154.134 113.524L153.83 113.152L154.134 109.733H169.572L169.842 110.106Z" stroke="#323232"/>
<path d="M186.496 127.739L186.767 128.111L186.463 131.53H172.815L173.052 125.031L172.815 109.733H186.598L186.868 110.106L186.53 113.524L181.328 113.355L177.41 113.389L177.308 118.635L181.058 118.702L184.605 118.601L184.875 118.939L184.571 122.358L180.72 122.256L177.241 122.29L177.207 124.625L177.308 127.908L181.125 127.942L186.496 127.739Z" stroke="#323232"/>
<path d="M212.669 131.53H208.615L208.277 124.93L207.501 116.536H207.163L202.298 129.228H198.751L194.326 116.536H194.022L193.178 124.49L192.705 131.53H188.854L191.05 109.733H196.319L197.198 112.949L200.643 123.271H200.947L204.562 112.949L205.541 109.733H210.71L212.669 131.53Z" stroke="#323232"/>
<path d="M230.602 127.739L230.872 128.111L230.568 131.53H216.921L217.157 125.031L216.921 109.733H230.703L230.974 110.106L230.636 113.524L225.434 113.355L221.515 113.389L221.414 118.635L225.163 118.702L228.71 118.601L228.98 118.939L228.676 122.358L224.826 122.256L221.346 122.29L221.312 124.625L221.414 127.908L225.231 127.942L230.602 127.739Z" stroke="#323232"/>
<path d="M252.079 124.795L252.248 131.53H247.316L238.432 116.773H238.162L238.128 124.016L238.263 131.53H234.108L234.344 125.099L234.142 109.733H239.04L247.924 124.49H248.228L248.127 109.936L252.349 109.666L252.079 124.795Z" stroke="#323232"/>
<path d="M271.249 110.106L270.978 113.524L266.891 113.321H265.54L265.371 124.625L265.573 131.53H260.979L261.216 125.031L261.047 113.321H259.696L255.541 113.524L255.237 113.152L255.541 109.733H270.978L271.249 110.106Z" stroke="#323232"/>
</svg>
