<svg width="160" height="71" viewBox="0 0 160 71" fill="none" xmlns="http://www.w3.org/2000/svg">
<path d="M21.632 29.568C24.96 34.8587 28.2667 39.6373 31.552 43.904L31.424 44.864C28.6507 45.8453 25.8133 46.4213 22.912 46.592L22.016 45.888C18.944 40.5973 16.448 35.9893 14.528 32.064H8.32V32.896L8.704 45.952H0L0.448 33.664L0 4.736L15.808 4.672C20.1173 4.672 23.4453 5.73867 25.792 7.872C28.1387 9.96267 29.312 12.9707 29.312 16.896C29.312 19.5413 28.6293 21.9733 27.264 24.192C25.9413 26.368 24.064 28.16 21.632 29.568ZM8.448 25.344L14.784 25.6C18.4107 24.3627 20.224 21.7387 20.224 17.728C20.224 15.552 19.6267 13.9307 18.432 12.864C17.28 11.7547 15.488 11.1573 13.056 11.072L8.704 11.328L8.448 25.344Z" fill="white"/>
<path d="M54.847 27.392C54.8897 25.856 54.5697 24.6827 53.887 23.872C53.2043 23.0613 52.2017 22.656 50.879 22.656C48.959 22.656 46.911 23.5733 44.735 25.408L44.607 32.832L45.055 45.952H36.543L36.991 33.6L36.607 1.664L45.119 1.024L44.799 20.416H45.183C47.5297 18.2827 50.111 16.7467 52.927 15.808C56.1697 15.808 58.623 16.5547 60.287 18.048C61.9937 19.4987 62.8257 21.6107 62.783 24.384L62.591 32.896L62.911 45.952H54.399L54.847 27.392Z" fill="white"/>
<path d="M82.764 15.616C87.116 15.616 90.444 16.896 92.748 19.456C95.052 22.016 96.204 25.7067 96.204 30.528C96.204 35.7333 94.9667 39.7227 92.492 42.496C90.0173 45.2267 86.4547 46.592 81.804 46.592C77.452 46.592 74.124 45.312 71.82 42.752C69.516 40.192 68.364 36.5013 68.364 31.68C68.364 26.4747 69.6013 22.5067 72.076 19.776C74.5507 17.0027 78.1133 15.616 82.764 15.616ZM82.188 21.376C80.14 21.376 78.6467 22.0587 77.708 23.424C76.812 24.7893 76.364 26.9867 76.364 30.016C76.364 33.9413 76.8333 36.736 77.772 38.4C78.7107 40.064 80.2467 40.896 82.38 40.896C84.428 40.896 85.9 40.2347 86.796 38.912C87.7347 37.5467 88.204 35.328 88.204 32.256C88.204 28.3733 87.7133 25.6 86.732 23.936C85.7933 22.2293 84.2787 21.376 82.188 21.376ZM72.46 9.024C74.892 6.80534 77.9 3.79734 81.484 0H83.34C86.668 3.66933 89.6547 6.67733 92.3 9.024L90.188 12.288H89.356C86.54 10.0693 84.2147 8.10667 82.38 6.4C80.716 7.97867 78.412 9.94133 75.468 12.288H74.636L72.46 9.024Z" fill="white"/>
<path d="M119.966 27.392C120.009 25.8987 119.667 24.7467 118.942 23.936C118.259 23.0827 117.257 22.656 115.934 22.656C114.014 22.656 111.966 23.5733 109.79 25.408V32.832L110.174 45.952H101.662L102.11 33.664L101.79 16.768L109.854 16.064V20.416H110.302C112.649 18.2827 115.209 16.7467 117.982 15.808C121.225 15.808 123.699 16.5547 125.406 18.048C127.113 19.4987 127.923 21.6107 127.838 24.384L127.646 32.896L128.03 45.952H119.454L119.966 27.392Z" fill="white"/>
<path d="M158.577 32.128L141.297 32.256C141.681 37.5893 144.39 40.256 149.425 40.256C152.07 40.256 155.014 39.5093 158.257 38.016L158.961 38.464L157.681 44.8C154.438 45.9947 151.388 46.592 148.529 46.592C143.836 46.592 140.145 45.2267 137.457 42.496C134.812 39.7653 133.489 35.9893 133.489 31.168C133.489 26.3893 134.79 22.6133 137.393 19.84C139.996 17.024 143.516 15.616 147.953 15.616C151.75 15.616 154.673 16.6613 156.721 18.752C158.812 20.8 159.857 23.68 159.857 27.392C159.857 28.3733 159.75 29.6107 159.537 31.104L158.577 32.128ZM152.433 26.432C152.433 24.7253 152.049 23.4453 151.281 22.592C150.513 21.696 149.382 21.248 147.889 21.248C146.225 21.248 144.838 21.8027 143.729 22.912C142.62 23.9787 141.873 25.536 141.489 27.584L152.305 27.328L152.433 26.432Z" fill="white"/>
<path d="M18.9867 68.134L18.8247 69.952H12.5607L12.6867 66.496L12.5607 58.36H15.0447L14.9007 66.28L14.9547 67.936H18.8427L18.9867 68.134Z" fill="white"/>
<path d="M27.7098 67.936L27.8538 68.134L27.6918 69.952H20.4198L20.5458 66.496L20.4198 58.36H27.7638L27.9078 58.558L27.7278 60.376L24.9558 60.286L22.8678 60.304L22.8138 63.094L24.8118 63.13L26.7018 63.076L26.8458 63.256L26.6838 65.074L24.6318 65.02L22.7778 65.038L22.7598 66.28L22.8138 68.026L24.8478 68.044L27.7098 67.936Z" fill="white"/>
<path d="M36.9646 58.288C38.6446 58.288 39.9346 58.756 40.8346 59.692C41.7346 60.628 42.1846 61.972 42.1846 63.724C42.1846 65.776 41.6806 67.348 40.6726 68.44C39.6646 69.532 38.2246 70.078 36.3526 70.078C35.7886 70.078 35.1106 70.066 34.3186 70.042C33.5386 70.018 32.8666 69.988 32.3026 69.952L32.4286 66.496L32.3026 58.36L36.9646 58.288ZM36.7846 68.188C38.6926 68.188 39.6466 66.886 39.6466 64.282C39.6466 62.866 39.4126 61.84 38.9446 61.204C38.4886 60.556 37.7686 60.232 36.7846 60.232C36.1486 60.232 35.4706 60.262 34.7506 60.322L34.6426 66.28L34.6966 68.062C35.5366 68.146 36.2326 68.188 36.7846 68.188Z" fill="white"/>
<path d="M51.2997 67.936L51.4437 68.134L51.2817 69.952H44.0097L44.1357 66.496L44.0097 58.36H51.3537L51.4977 58.558L51.3177 60.376L48.5457 60.286L46.4577 60.304L46.4037 63.094L48.4017 63.13L50.2917 63.076L50.4357 63.256L50.2737 65.074L48.2217 65.02L46.3677 65.038L46.3497 66.28L46.4037 68.026L48.4377 68.044L51.2997 67.936ZM49.6977 54.004L50.3097 55.426L50.2377 55.642C49.0737 56.098 47.7777 56.566 46.3497 57.046L46.1337 56.974L45.7377 55.984C47.2137 55.24 48.4557 54.562 49.4637 53.95L49.6977 54.004Z" fill="white"/>
<path d="M57.6139 58.342C58.8259 58.342 59.7559 58.648 60.4039 59.26C61.0639 59.872 61.3939 60.748 61.3939 61.888C61.3939 62.764 61.2019 63.532 60.8179 64.192C60.4339 64.84 59.8819 65.344 59.1619 65.704C58.4539 66.064 57.6199 66.244 56.6599 66.244H55.5079V66.28L55.6159 69.952H53.1679L53.2939 66.496L53.1679 58.36L57.6139 58.342ZM57.1999 64.462C58.3039 64.15 58.8559 63.364 58.8559 62.104C58.8559 61.456 58.6879 60.976 58.3519 60.664C58.0279 60.34 57.5239 60.166 56.8399 60.142L55.6159 60.214L55.5439 64.39L57.1999 64.462Z" fill="white"/>
<path d="M71.2583 69.952H68.7743L68.4863 68.44L68.1803 67.36L65.9123 67.306L63.9143 67.36L63.6083 68.314L63.3023 69.952H60.8903L64.8143 58.36H67.7123L71.2583 69.952ZM67.6583 65.47L66.2903 60.646H66.1283L64.5443 65.47L66.0923 65.506L67.6583 65.47Z" fill="white"/>
<path d="M79.0273 65.344C79.9632 66.832 80.8932 68.176 81.8173 69.376L81.7812 69.646C81.0013 69.922 80.2033 70.084 79.3873 70.132L79.1353 69.934C78.2713 68.446 77.5693 67.15 77.0293 66.046H75.2832V66.28L75.3913 69.952H72.9433L73.0693 66.496L72.9433 58.36L77.3893 58.342C78.6012 58.342 79.5372 58.642 80.1973 59.242C80.8572 59.83 81.1872 60.676 81.1872 61.78C81.1872 62.524 80.9953 63.208 80.6113 63.832C80.2393 64.444 79.7113 64.948 79.0273 65.344ZM75.3193 64.156L77.1012 64.228C78.1212 63.88 78.6312 63.142 78.6312 62.014C78.6312 61.402 78.4632 60.946 78.1273 60.646C77.8033 60.334 77.2992 60.166 76.6152 60.142L75.3913 60.214L75.3193 64.156Z" fill="white"/>
<path d="M90.5014 58.558L90.3574 60.376L88.1794 60.268H87.4594L87.3694 66.28L87.4774 69.952H85.0294L85.1554 66.496L85.0654 60.268H84.3454L82.1314 60.376L81.9694 60.178L82.1314 58.36H90.3574L90.5014 58.558Z" fill="white"/>
<path d="M99.3758 67.936L99.5198 68.134L99.3578 69.952H92.0858L92.2118 66.496L92.0858 58.36H99.4298L99.5738 58.558L99.3938 60.376L96.6218 60.286L94.5338 60.304L94.4798 63.094L96.4778 63.13L98.3678 63.076L98.5118 63.256L98.3498 65.074L96.2978 65.02L94.4438 65.038L94.4258 66.28L94.4798 68.026L96.5138 68.044L99.3758 67.936Z" fill="white"/>
<path d="M113.322 69.952H111.162L110.982 66.442L110.568 61.978H110.388L107.796 68.728H105.906L103.548 61.978H103.386L102.936 66.208L102.684 69.952H100.632L101.802 58.36H104.61L105.078 60.07L106.914 65.56H107.076L109.002 60.07L109.524 58.36H112.278L113.322 69.952Z" fill="white"/>
<path d="M122.878 67.936L123.022 68.134L122.86 69.952H115.588L115.714 66.496L115.588 58.36H122.932L123.076 58.558L122.896 60.376L120.124 60.286L118.036 60.304L117.982 63.094L119.98 63.13L121.87 63.076L122.014 63.256L121.852 65.074L119.8 65.02L117.946 65.038L117.928 66.28L117.982 68.026L120.016 68.044L122.878 67.936Z" fill="white"/>
<path d="M134.322 66.37L134.412 69.952H131.784L127.05 62.104H126.906L126.888 65.956L126.96 69.952H124.746L124.872 66.532L124.764 58.36H127.374L132.108 66.208H132.27L132.216 58.468L134.466 58.324L134.322 66.37Z" fill="white"/>
<path d="M144.537 58.558L144.393 60.376L142.215 60.268H141.495L141.405 66.28L141.513 69.952H139.065L139.191 66.496L139.101 60.268H138.381L136.167 60.376L136.005 60.178L136.167 58.36H144.393L144.537 58.558Z" fill="white"/>
</svg>
