<svg width="38" height="32" viewBox="0 0 38 32" fill="none" xmlns="http://www.w3.org/2000/svg">
<path d="M34.641 6.23901H3.15058C1.71865 6.23901 0.5 4.98557 0.5 3.36951C0.5 1.75345 1.71865 0.5 3.15058 0.5H34.6449C36.0765 0.5 37.2949 1.75295 37.2954 3.36854C37.292 4.98925 36.0732 6.23901 34.641 6.23901ZM34.641 18.8716H3.15058C1.71865 18.8716 0.5 17.6181 0.5 16.0021C0.5 14.386 1.71865 13.1326 3.15058 13.1326H34.6449C36.0765 13.1326 37.2949 14.3855 37.2954 16.0011C37.292 17.6181 36.0728 18.8716 34.641 18.8716ZM34.641 31.5H3.15058C1.71865 31.5 0.5 30.2466 0.5 28.6305C0.5 27.0144 1.71865 25.761 3.15058 25.761H34.6449C36.0765 25.761 37.2949 27.0139 37.2954 28.6295C37.292 30.2465 36.0728 31.5 34.641 31.5Z" fill="#E2211C" stroke="white"/>
</svg>
