<svg width="32" height="32" viewBox="0 0 32 32" fill="none" xmlns="http://www.w3.org/2000/svg">
<path d="M5.91176 26.7931C5.83936 26.7135 5.74803 26.5952 5.63777 26.4383L7.34081 25.0343L7.57898 25.1631C7.65113 25.3669 7.76765 25.5574 7.92855 25.7344C8.39515 26.248 9.16366 26.4274 10.2341 26.2728L11.1063 25.5537L13.8603 23.1207L15.4652 24.8871L12.7103 26.9725L9.12739 30.0656L7.4546 28.5178L8.72664 27.4923L8.6301 27.3861C7.40515 27.6371 6.49904 27.4395 5.91176 26.7931Z" fill="#E2211C"/>
<path d="M8.25016 14.1624C7.82965 14.071 7.48598 14.0975 7.21915 14.2419C6.95233 14.3862 6.77682 14.639 6.69262 15.0001C6.5704 15.5244 6.69279 16.1312 7.05979 16.8206L9.09724 17.2408L12.7408 17.7992L12.199 20.1235L8.82404 19.3602L0 17.808L0.365506 15.4505L5.68838 16.5441L5.71282 16.4392C5.27439 15.6878 5.01548 14.9032 4.9361 14.0856C5.14252 13.2001 5.50443 12.569 6.02182 12.1921C6.53018 11.8013 7.16508 11.6837 7.92652 11.8393L10.2597 12.3334L13.8775 12.9235L13.3356 15.2478L8.25016 14.1624Z" fill="#E2211C"/>
<path d="M18.992 4.38628C20.2054 4.5146 21.0915 4.96916 21.6502 5.74997C22.2089 6.53078 22.4094 7.59248 22.2517 8.93506C22.0814 10.3846 21.6059 11.459 20.8252 12.1583C20.0459 12.8457 19.0078 13.1209 17.7111 12.9838C16.4977 12.8555 15.6116 12.4009 15.0529 11.6201C14.4942 10.8393 14.2937 9.77758 14.4514 8.435C14.6217 6.98548 15.0965 5.91701 15.8758 5.22957C16.6565 4.53026 17.6953 4.24916 18.992 4.38628ZM18.643 5.97327C18.0719 5.91289 17.6332 6.05895 17.3268 6.41148C17.0324 6.76526 16.8356 7.36394 16.7365 8.20751C16.6081 9.30058 16.6475 10.0926 16.8548 10.5837C17.0621 11.0747 17.4632 11.3517 18.058 11.4146C18.6291 11.475 19.0611 11.3342 19.3542 10.9923C19.6606 10.6398 19.864 10.0358 19.9645 9.18037C20.0915 8.09918 20.0454 7.31243 19.8262 6.82013C19.6203 6.3172 19.2259 6.03491 18.643 5.97327ZM16.3346 2.24682C17.0853 1.7007 18.0224 0.951759 19.1459 0L19.6634 0.0547239C20.4713 1.17464 21.2057 2.10033 21.8665 2.8318L21.1709 3.67844L20.9389 3.65391C20.2263 2.95305 19.6421 2.33795 19.1864 1.80861C18.6708 2.19915 17.9641 2.67776 17.0665 3.24442L16.8345 3.21989L16.3346 2.24682Z" fill="#E2211C"/>
<path d="M28.8168 17.7488C29.2301 17.6789 29.5256 17.5226 29.7032 17.2801C29.8952 17.0469 29.9499 16.7495 29.8673 16.388C29.7474 15.8632 29.3672 15.3535 28.7267 14.8589L26.685 15.2645L23.1009 16.0861L22.5692 13.7595L25.9765 13.2107L30.603 12.2003L31.3004 14.366L30.1035 14.6037L30.1315 14.7262C30.8648 15.2511 31.4471 15.8669 31.8785 16.5737C32.0811 17.46 32.0303 18.1772 31.7263 18.7253C31.4339 19.271 30.9037 19.608 30.1357 19.7361L27.7829 20.1486L24.2163 20.9668L23.6806 18.6227L28.8168 17.7488Z" fill="#E2211C"/>
<path d="M19.8955 29.2041L23.785 26.3178C22.7581 25.2183 21.6748 25.0849 20.535 25.9177C19.9361 26.3553 19.4012 27.0051 18.9303 27.8672L18.6919 27.8859L17.8651 26.2925C18.3887 25.4956 18.974 24.8607 19.6212 24.3878C20.6837 23.6115 21.7599 23.2987 22.8496 23.4496C23.9298 23.6075 24.8947 24.2121 25.7443 25.2635C26.5865 26.3056 26.9574 27.3443 26.8569 28.3796C26.764 29.4242 26.2152 30.3135 25.2107 31.0475C24.351 31.6757 23.5051 31.9311 22.673 31.814C21.8388 31.7132 21.0946 31.2581 20.4404 30.4486C20.2674 30.2346 20.0735 29.9471 19.8586 29.5862L19.8955 29.2041ZM22.2903 29.4299C22.5911 29.8021 22.9036 30.0177 23.2278 30.0768C23.5596 30.1451 23.8945 30.0558 24.2326 29.8088C24.6093 29.5335 24.8255 29.1832 24.8811 28.7578C24.9443 28.3417 24.8389 27.8785 24.5649 27.3684L22.1614 29.2134L22.2903 29.4299Z" fill="#E2211C"/>
</svg>
